PathFileType	4	(X/Y/Z)	 s05c0301.trc
DataRate	CameraRate	NumFrames	NumMarkers	Units	OrigDataRate	OrigDataStartFrame	OrigNumFrames
200	200	6	50	mm	200	1501	2000
Frame#	Time	racr			lacr			c7			jug			rlel			rdr			llel			ldr			s2			lic			ric			lasi			rasi			rpsi			lpsi			rgt			lgt			rth1			rth2			rth3			rth4			rlfc			rmfc			rsh1			rsh2			rsh3			rsh4			rlmal			rmmal			rcal			rtoe			rmt5			lth1			lth2			lth4			lth3			llfc			lmfc			lsh1			lsh2			lsh3			lsh4			llmal			lmmal			lcal			ltoe			lmt5			SBIKE			LBIKE			RBIKE			
		X1	Y1	Z1	X2	Y2	Z2	X3	Y3	Z3	X4	Y4	Z4	X5	Y5	Z5	X6	Y6	Z6	X7	Y7	Z7	X8	Y8	Z8	X9	Y9	Z9	X10	Y10	Z10	X11	Y11	Z11	X12	Y12	Z12	X13	Y13	Z13	X14	Y14	Z14	X15	Y15	Z15	X16	Y16	Z16	X17	Y17	Z17	X18	Y18	Z18	X19	Y19	Z19	X20	Y20	Z20	X21	Y21	Z21	X22	Y22	Z22	X23	Y23	Z23	X24	Y24	Z24	X25	Y25	Z25	X26	Y26	Z26	X27	Y27	Z27	X28	Y28	Z28	X29	Y29	Z29	X30	Y30	Z30	X31	Y31	Z31	X32	Y32	Z32	X33	Y33	Z33	X34	Y34	Z34	X35	Y35	Z35	X36	Y36	Z36	X37	Y37	Z37	X38	Y38	Z38	X39	Y39	Z39	X40	Y40	Z40	X41	Y41	Z41	X42	Y42	Z42	X43	Y43	Z43	X44	Y44	Z44	X45	Y45	Z45	X46	Y46	Z46	X47	Y47	Z47	X48	Y48	Z48	X49	Y49	Z49	X50	Y50	Z50	
1501	7.5050	738.712190	1256.431043	-148.860291	702.128682	1335.030206	-413.603715	713.504712	1367.239886	-273.923051	642.362448	1218.741139	-297.002937	568.360226	1093.123287	29.240811	690.368091	923.961629	-67.882810	542.553507	1119.994083	-551.331896	687.931269	924.373995	-462.013667	127.611275	1225.288516	-229.700991	253.152817	1267.661126	-376.839690	291.302841	1191.851390	-105.471948	295.221149	1199.400718	-359.952999	315.385597	1133.569798	-149.315356	171.181471	1256.983603	-177.287382	163.924456	1282.541808	-259.233329	202.093662	1068.364763	-102.362186	193.458457	1175.884007	-422.804073	224.207914	965.387464	-87.849196	254.752951	881.248141	-83.709326	238.513454	794.782796	-90.794769	291.058431	884.730223	-92.259761	266.938009	648.272256	-120.055711	247.015792	644.637855	-226.076755	209.671377	558.053114	-89.274531	207.211691	470.231816	-100.660356	164.839746	395.995067	-103.601179	236.837106	464.871702	-125.569664	136.409814	263.610883	-112.258916	153.541038	287.008509	-190.988506	62.846462	251.072620	-156.584308	340.703192	142.693010	-150.788817	236.756556	152.228054	-86.429419	302.966637	1091.043460	-454.394330	386.880275	1069.582058	-455.525241	404.182073	1094.907910	-433.287060	449.438199	1005.161692	-466.664917	553.945932	898.847158	-449.668938	544.544529	877.182517	-339.319877	456.219082	831.273570	-469.971113	400.128653	765.832987	-457.039605	316.454454	735.610484	-454.939602	420.205514	740.082782	-437.035964	219.714989	653.523437	-445.834265	257.063702	656.688433	-371.579297	154.717668	680.428398	-406.021707	293.057705	421.099359	-381.202814	219.215516	494.740920	-455.172169	-214.038553	914.709708	-266.980962	-43.548728	85.204126	-474.922279	-51.808476	80.039718	-77.730724	
1502	7.5100	738.072278	1257.123195	-150.957945	701.096683	1333.785582	-416.129909	712.819990	1366.929119	-276.377474	640.554704	1219.476205	-298.284462	569.018418	1093.794223	28.663608	690.759944	923.582524	-67.950195	540.277487	1118.512074	-551.929629	687.748662	925.154709	-462.132420	127.591742	1226.846981	-225.340396	250.787628	1270.159680	-374.388842	293.397558	1192.380761	-104.030156	293.508178	1202.087676	-358.469938	316.914775	1134.309151	-148.675956	172.904777	1257.692971	-172.752036	163.402872	1284.037955	-255.096956	204.029877	1069.576709	-100.090642	191.215870	1178.321984	-420.073573	224.136876	967.827480	-86.280360	253.303361	883.229280	-81.616841	235.864165	797.025470	-89.148607	289.783943	886.213006	-89.503517	262.196611	649.678118	-117.776564	244.318509	645.677252	-224.105014	204.482842	559.779512	-87.097505	201.288590	471.892320	-98.425379	158.417758	398.004969	-101.288323	231.071069	466.267067	-123.115681	129.608798	265.213030	-110.259675	146.528018	288.973210	-188.729400	55.673562	255.052462	-153.621040	330.332925	138.843938	-152.303619	227.544480	150.858763	-86.112646	301.396562	1094.868791	-452.658402	385.445365	1074.307394	-453.802882	403.096994	1100.205259	-432.345013	449.049021	1010.967585	-465.772132	556.664300	906.741347	-449.160514	547.771390	885.617980	-339.200283	460.304187	837.667301	-469.754884	405.520666	771.104058	-456.857268	322.555259	739.358721	-454.387344	426.089445	745.701395	-437.094036	226.653342	654.929749	-445.364817	263.994873	658.831710	-371.477276	161.171414	680.588524	-405.582123	304.257710	424.184876	-381.230117	229.328387	496.438567	-455.066037	-214.097583	914.709956	-266.992395	-43.567942	85.266288	-474.965696	-51.948617	79.820240	-78.008417	
1503	7.5150	737.463813	1257.811201	-152.997713	700.165087	1332.386815	-418.473686	712.165547	1366.506684	-278.846972	639.008768	1219.239961	-299.718277	569.548494	1094.522634	28.197576	691.104972	923.277281	-68.006497	537.923047	1117.076705	-552.407226	687.475204	925.954301	-462.222427	127.873956	1228.414188	-221.407089	248.479474	1272.908557	-371.926402	295.188709	1193.521146	-102.638842	291.722672	1204.869535	-357.055923	318.189703	1135.990593	-148.007524	173.119880	1259.748239	-169.214521	162.915290	1286.053807	-251.199585	205.707461	1071.444263	-97.819125	188.690179	1180.977535	-417.446854	224.325678	970.471893	-84.949892	252.291447	885.592813	-80.067828	233.916315	799.588886	-88.152030	288.946620	888.098877	-87.248865	258.423059	651.632603	-115.579865	242.663215	647.391834	-222.364455	200.461446	562.028019	-85.166479	196.477744	474.153239	-96.497760	152.875124	400.655324	-99.258551	226.213252	468.092030	-121.082865	123.190786	267.760854	-108.347837	140.418568	291.160069	-186.690523	48.796948	259.599933	-150.974697	319.985371	135.740231	-153.386623	218.386800	150.292078	-85.883448	299.656719	1098.413603	-450.704914	383.776074	1078.816358	-452.703125	401.414334	1105.190854	-431.383834	448.027697	1015.930013	-464.019526	557.611424	914.691862	-450.453843	550.400698	893.586070	-338.911754	463.626839	843.403925	-469.401508	410.231048	775.738872	-456.617254	327.921898	742.330984	-454.075471	431.347853	750.704889	-436.951452	233.062888	655.756473	-444.872109	270.744856	660.214338	-371.359532	167.710780	679.910501	-405.760357	315.721761	427.070239	-381.545601	239.484417	497.565645	-454.980334	-214.179720	914.707481	-267.087474	-43.573049	85.273394	-474.965142	-51.843361	80.071500	-77.468309	
1504	7.5200	736.777058	1258.452460	-154.989398	699.295782	1330.869612	-420.736803	711.538220	1366.034181	-281.309865	637.411957	1218.988314	-300.903738	569.998961	1095.205981	27.603838	691.368527	923.013366	-68.052625	535.701840	1115.703719	-553.023772	687.216460	927.042977	-462.457653	128.024884	1230.751024	-217.765629	246.180730	1275.680822	-369.609900	296.674456	1195.193123	-101.214304	289.879843	1207.822160	-355.631675	318.904362	1137.991949	-146.845283	175.602813	1261.690992	-165.993608	162.441806	1288.388573	-247.951041	206.982939	1073.567236	-96.069991	186.100411	1183.915388	-414.879574	224.815865	973.398530	-83.897268	251.878435	888.209794	-78.982293	232.967145	802.384570	-87.356164	288.608849	890.445681	-85.503344	256.254606	653.823009	-113.727881	241.841706	649.722343	-220.902216	197.782110	564.602558	-83.492277	192.679285	476.790130	-94.930445	148.301321	403.841728	-97.496371	221.740860	470.467407	-119.596264	117.101289	271.246223	-106.483264	134.272048	294.513675	-184.878099	42.279844	265.053425	-148.526651	309.542510	133.341123	-154.413483	209.241683	150.476969	-85.685407	297.352353	1101.726750	-449.015417	381.454292	1082.800397	-450.903503	399.226694	1109.940399	-430.546907	446.588312	1020.862185	-462.893887	560.031620	922.497214	-448.460850	551.720098	901.819691	-338.837477	466.073363	848.502697	-468.989827	414.147831	779.597975	-456.284083	332.588763	744.407527	-453.842798	435.820920	755.015078	-436.616978	238.906553	655.938974	-444.324276	276.604834	661.077691	-371.085140	172.210399	678.366505	-404.713947	327.241981	429.351157	-381.546408	249.422895	498.108534	-454.943451	-214.273222	914.738177	-267.172437	-43.602183	85.291123	-474.974482	-51.832972	80.089175	-77.522664	
1505	7.5250	736.185108	1259.020340	-156.858344	698.518769	1329.122822	-422.889302	710.989841	1365.487702	-283.716718	635.980341	1218.705255	-302.033120	570.350049	1095.815012	27.119977	691.573320	922.699012	-68.091294	533.536356	1114.509180	-553.657203	686.868515	928.569017	-462.782083	128.036637	1233.429588	-214.094280	243.936718	1278.594212	-367.541867	297.828325	1197.356987	-99.737744	288.037037	1210.863065	-354.179700	318.134602	1140.043727	-146.995116	175.963470	1265.035641	-163.035396	162.046566	1291.339827	-244.578183	207.675141	1075.907293	-94.380213	183.574640	1187.128320	-412.410692	225.529995	976.399528	-82.964436	252.173428	891.110250	-78.109370	232.947941	805.455395	-86.641775	288.875547	893.137195	-84.193930	255.497501	656.267897	-112.064531	241.850161	652.540975	-219.673588	196.339599	567.572759	-82.093248	189.938206	480.001921	-93.663860	144.581079	407.586652	-96.023031	218.888995	473.116754	-118.354757	111.366503	275.405495	-104.776283	128.669168	298.317617	-183.262448	35.719722	271.381518	-146.092589	299.082561	131.629840	-155.205094	199.994332	151.284445	-85.530343	294.697796	1104.892778	-447.087107	378.988041	1087.025214	-449.816526	396.694583	1114.448747	-429.837031	444.709646	1025.687616	-461.874785	560.329824	929.231446	-448.035318	552.890631	908.496755	-338.294512	467.596297	852.732121	-468.286839	417.121839	782.713069	-455.914518	336.376727	745.751448	-453.785143	439.329499	758.500285	-436.268598	243.952374	655.402546	-443.743503	281.656388	661.408915	-370.707402	176.756623	675.926633	-404.288213	338.933826	431.614509	-381.569239	259.205499	498.097130	-454.905378	-214.340222	914.780547	-267.259632	-43.630541	85.325569	-474.974439	-51.903062	80.274425	-77.372344	
1506	7.5300	735.598165	1259.370528	-158.529693	697.799002	1327.353969	-424.870356	710.501420	1364.833845	-285.905123	634.537637	1218.259459	-302.958823	570.670509	1096.411557	26.634725	691.650797	922.236991	-68.021368	531.210668	1113.429550	-554.335000	685.806079	929.547186	-463.016903	128.138602	1236.729588	-210.856836	241.784587	1281.453921	-365.546395	298.701976	1199.977726	-98.297477	286.262133	1213.988271	-352.751207	318.137491	1143.144404	-145.213880	176.953968	1268.030621	-159.995170	161.659256	1294.651671	-241.541716	208.537643	1078.917909	-92.389127	181.232948	1190.712103	-410.082622	226.545715	979.281427	-82.070491	253.216750	894.031306	-77.477450	233.984759	808.413442	-85.869180	289.910371	896.118886	-83.410811	256.385157	658.841773	-110.742131	242.893968	655.420298	-218.626737	196.207720	570.798677	-80.931758	188.262358	483.283967	-92.651066	141.648624	411.719970	-94.862945	216.961700	476.034798	-117.442431	105.612798	280.004061	-103.381710	123.452858	303.038696	-181.917390	30.198362	278.349983	-145.175915	288.771727	130.546306	-155.301815	190.430915	152.675314	-85.472745	291.752429	1108.248808	-444.945465	376.238299	1090.962213	-448.560325	393.889564	1118.750931	-429.000946	442.154645	1030.074281	-461.009360	559.717500	935.050301	-447.579414	553.200801	915.018774	-337.330303	468.165829	856.059618	-467.591177	419.131702	784.869979	-455.459200	339.176636	746.426637	-453.529576	441.826978	761.200850	-435.795142	248.166035	653.991193	-443.161811	285.903343	660.822827	-370.384318	180.354522	672.479828	-403.757573	350.569012	433.584217	-381.830350	268.590853	497.499695	-454.962830	-214.379986	914.828755	-267.353061	-43.646379	85.272479	-474.914051	-51.849742	80.183130	-77.515149	
